<?xml version="1.0" encoding="UTF-8"?>
<svg width="150px" height="150px" viewBox="0 0 150 150" version="1.1" xmlns="http://www.w3.org/2000/svg" xmlns:xlink="http://www.w3.org/1999/xlink">
    <!-- Generator: Sketch 46.2 (44496) - http://www.bohemiancoding.com/sketch -->
    <title>logo</title>
    <desc>Created with Sketch.</desc>
    <defs></defs>
    <g id="homepage-covers" stroke="none" stroke-width="1" fill="none" fill-rule="evenodd">
        <g id="logo" fill="#2D2D2D">
            <g id="Group-2">
                <path d="M8,0 L142,0 C146.418278,-8.11624501e-16 150,3.581722 150,8 L150,142 C150,146.418278 146.418278,150 142,150 L8,150 C3.581722,150 5.41083001e-16,146.418278 0,142 L0,8 L0,8 C-5.41083001e-16,3.581722 3.581722,8.11624501e-16 8,0 L8,0 Z M13.9,46.02 L13.9,96 L22.09,96 L22.09,73.88 L47.43,73.88 L47.43,96 L55.62,96 L55.62,46.02 L47.43,46.02 L47.43,66.88 L22.09,66.88 L22.09,46.02 L13.9,46.02 Z M60.87,59.81 L75.22,95.16 L68.85,109.86 L77.39,109.86 L96.99,59.81 L88.31,59.81 L79.14,85.57 L69.55,59.81 L60.87,59.81 Z M103.78,46.02 L101.05,74.16 L108.68,74.16 C109.66,72.41 110.99,71.15 112.74,70.31 C114.28,69.54 116.17,69.19 118.34,69.19 C121.56,69.19 124.08,70.1 125.76,72.06 C127.44,73.95 128.35,76.61 128.35,79.97 C128.35,83.05 127.3,85.5 125.34,87.32 C123.31,89.14 120.79,90.05 117.85,90.05 C115.12,90.05 112.95,89.42 111.41,88.3 C109.59,86.97 108.54,84.94 108.19,82.21 L100.14,82.21 C100.49,86.83 102.45,90.54 106.09,93.27 C109.31,95.72 113.23,96.98 117.78,96.98 C122.75,96.98 127.02,95.51 130.66,92.57 C134.58,89.28 136.54,85.08 136.54,79.9 C136.54,74.51 135,70.24 132.06,67.16 C129.12,64.08 125.27,62.54 120.58,62.54 C118.34,62.54 116.31,62.89 114.49,63.59 C112.46,64.29 110.71,65.41 109.17,66.95 L108.96,66.95 L110.36,53.23 L134.23,53.23 L134.23,46.02 L103.78,46.02 Z" id="Combined-Shape"></path>
            </g>
        </g>
    </g>
</svg>